<?xml version="1.0" encoding="UTF-8" standalone="no"?>
<!DOCTYPE svg PUBLIC "-//W3C//DTD SVG 1.1//EN" "http://www.w3.org/Graphics/SVG/1.1/DTD/svg11.dtd">
<svg width="100%" height="100%" viewBox="0 0 512 512" version="1.1" xmlns="http://www.w3.org/2000/svg" xmlns:xlink="http://www.w3.org/1999/xlink" xml:space="preserve" xmlns:serif="http://www.serif.com/" style="fill-rule:evenodd;clip-rule:evenodd;stroke-linejoin:round;stroke-miterlimit:2;">
    <g transform="matrix(1,0,0,1,-2112.72,0)">
        <g id="my-sns" serif:id="my sns" transform="matrix(1.08478,0,0,0.823758,482.383,-478.209)">
            <rect x="1502.92" y="580.521" width="471.985" height="621.542" style="fill:none;"/>
            <clipPath id="_clip1">
                <rect x="1502.92" y="580.521" width="471.985" height="621.542"/>
            </clipPath>
            <g clip-path="url(#_clip1)">
                <g transform="matrix(1.1103,0,0,1.45117,-890.918,519.056)">
                    <path d="M2156.03,75.087L2156.03,470.659L2230.05,396.529L2549.59,396.529C2557.95,396.529 2565.98,393.078 2571.89,386.934C2577.8,380.791 2581.13,372.458 2581.13,363.77C2581.13,296.31 2581.13,142.575 2581.13,75.115C2581.13,66.427 2577.8,58.094 2571.89,51.951C2565.98,45.807 2557.95,42.356 2549.59,42.356C2470.84,42.356 2266.26,42.356 2187.54,42.356C2170.14,42.356 2156.03,57.01 2156.03,75.087ZM2186.55,96.388L2186.55,405.077L2219.86,371.673L2523.6,371.673C2530.76,371.673 2537.63,368.717 2542.7,363.456C2547.76,358.195 2550.61,351.058 2550.61,343.618C2550.61,285.845 2550.61,154.185 2550.61,96.413C2550.61,88.972 2547.76,81.836 2542.7,76.574C2537.63,71.313 2530.76,68.357 2523.6,68.357C2456.16,68.357 2280.95,68.357 2213.53,68.357C2198.63,68.357 2186.55,80.907 2186.55,96.388Z" style="fill:rgb(15,188,249);"/>
                </g>
                <g transform="matrix(1.1103,0,0,2.34167,-897.897,380.252)">
                    <path d="M2516.7,131.943C2516.7,130.02 2514.2,128.46 2511.13,128.46L2238.89,128.46C2235.81,128.46 2233.31,130.02 2233.31,131.943L2233.31,159.808C2233.31,161.73 2235.81,163.291 2238.89,163.291L2511.13,163.291C2514.2,163.291 2516.7,161.73 2516.7,159.808L2516.7,131.943Z" style="fill:rgb(51,160,255);"/>
                </g>
                <g transform="matrix(1.1103,0,0,2.34167,-897.897,496.57)">
                    <path d="M2516.7,131.943C2516.7,130.02 2514.2,128.46 2511.13,128.46L2238.89,128.46C2235.81,128.46 2233.31,130.02 2233.31,131.943L2233.31,159.808C2233.31,161.73 2235.81,163.291 2238.89,163.291L2511.13,163.291C2514.2,163.291 2516.7,161.73 2516.7,159.808L2516.7,131.943Z" style="fill:rgb(66,106,224);"/>
                </g>
                <g transform="matrix(0.788425,0,0,2.34167,-179.055,612.889)">
                    <path d="M2516.7,131.943C2516.7,130.02 2513.18,128.46 2508.85,128.46L2241.16,128.46C2236.83,128.46 2233.31,130.02 2233.31,131.943L2233.31,159.808C2233.31,161.73 2236.83,163.291 2241.16,163.291L2508.85,163.291C2513.18,163.291 2516.7,161.73 2516.7,159.808L2516.7,131.943Z" style="fill:rgb(51,84,179);"/>
                </g>
            </g>
        </g>
    </g>
</svg>
