<?xml version="1.0" encoding="UTF-8" standalone="no"?>
<!DOCTYPE svg PUBLIC "-//W3C//DTD SVG 1.1//EN" "http://www.w3.org/Graphics/SVG/1.1/DTD/svg11.dtd">
<svg width="100%" height="100%" viewBox="0 0 516 512" version="1.1" xmlns="http://www.w3.org/2000/svg" xmlns:xlink="http://www.w3.org/1999/xlink" xml:space="preserve" xmlns:serif="http://www.serif.com/" style="fill-rule:evenodd;clip-rule:evenodd;stroke-linejoin:round;stroke-miterlimit:2;">
    <g transform="matrix(1,0,0,1,-1896.9,-2314.19)">
        <g id="cyan-v3-light-maxsize" serif:id="cyan v3 light maxsize" transform="matrix(1.52381,0,0,1.52381,1035.42,-594.288)">
            <rect x="565.341" y="1908.69" width="338.096" height="336" style="fill:none;"/>
            <clipPath id="_clip1">
                <rect x="565.341" y="1908.69" width="338.096" height="336"/>
            </clipPath>
            <g clip-path="url(#_clip1)">
                <g transform="matrix(-2.88857,-5.00315,5.00315,-2.88857,-7375.57,9123.1)">
                    <path d="M332.554,1837.81L332.554,1812.21L354.724,1825.01L332.554,1837.81Z" style="fill:rgb(66,106,224);"/>
                </g>
                <g transform="matrix(-2.88857,-5.00315,5.00315,-2.88857,-7375.57,9123.1)">
                    <path d="M357.68,1806.24L350.29,1801.97L332.554,1812.21L354.724,1825.01L376.894,1812.21L362.114,1803.68L357.68,1806.24Z" style="fill:rgb(15,188,249);"/>
                </g>
                <g transform="matrix(-2.88857,-5.00315,5.00315,-2.88857,-7375.57,9123.1)">
                    <path d="M376.894,1812.21L354.724,1825.01L354.724,1842.08L362.114,1837.81L362.114,1846.35L376.894,1837.81L376.894,1812.21Z" style="fill:rgb(37,60,128);"/>
                </g>
                <g transform="matrix(0.770285,0,0,0.770285,-493.345,66.8876)">
                    <path d="M1588.94,2609.16L1644.37,2577.16L1588.94,2545.16L1588.94,2609.16" style="fill:rgb(34,34,34);fill-opacity:0.4;"/>
                </g>
                <g transform="matrix(0.770285,0,0,0.770285,-493.345,116.186)">
                    <path d="M1588.94,2609.16L1644.37,2577.16L1588.94,2545.16L1588.94,2609.16" style="fill:rgb(34,34,34);fill-opacity:0.4;"/>
                </g>
                <g transform="matrix(0.770285,0,0,0.770285,-407.958,165.484)">
                    <path d="M1588.94,2609.16L1644.37,2577.16L1588.94,2545.16L1588.94,2609.16" style="fill:rgb(34,34,34);fill-opacity:0.4;"/>
                </g>
                <g transform="matrix(0.770285,0,0,0.770285,-450.651,140.835)">
                    <path d="M1588.94,2609.16L1644.37,2577.16L1588.94,2545.16L1588.94,2609.16" style="fill:rgb(34,34,34);fill-opacity:0.4;"/>
                </g>
                <g transform="matrix(0.770285,0,0,0.770285,-493.345,116.186)">
                    <path d="M1588.94,2609.16L1644.37,2577.16L1588.94,2545.16L1588.94,2609.16" style="fill:rgb(34,34,34);fill-opacity:0.4;"/>
                </g>
                <g transform="matrix(0.770285,0,0,0.770285,-578.732,17.5894)">
                    <path d="M1588.94,2609.16L1644.37,2577.16L1588.94,2545.16L1588.94,2609.16" style="fill:rgb(34,34,34);fill-opacity:0.4;"/>
                </g>
                <g transform="matrix(0.770285,0,0,0.770285,-536.038,42.2385)">
                    <path d="M1588.94,2609.16L1644.37,2577.16L1588.94,2545.16L1588.94,2609.16" style="fill:rgb(34,34,34);fill-opacity:0.4;"/>
                </g>
                <g transform="matrix(0.770285,0,0,0.770285,-493.345,66.8876)">
                    <path d="M1588.94,2609.16L1588.94,2545.16L1533.52,2577.16L1588.94,2609.16Z" style="fill:rgb(34,34,34);fill-opacity:0.4;"/>
                </g>
                <g transform="matrix(0.770285,0,0,0.770285,-578.732,17.5894)">
                    <path d="M1588.94,2609.16L1588.94,2545.16L1533.52,2577.16L1588.94,2609.16Z" style="fill:rgb(34,34,34);fill-opacity:0.4;"/>
                </g>
                <g transform="matrix(0.770285,0,0,0.770285,-536.038,42.2385)">
                    <path d="M1588.94,2609.16L1588.94,2545.16L1533.52,2577.16L1588.94,2609.16Z" style="fill:rgb(34,34,34);fill-opacity:0.4;"/>
                </g>
                <g transform="matrix(-0.385142,-0.667086,0.667086,-0.385142,-397.973,4141.55)">
                    <path d="M1588.94,2609.16L1588.94,2545.16L1533.52,2577.16L1588.94,2609.16Z" style="fill:rgb(34,34,34);fill-opacity:0.4;"/>
                </g>
                <g transform="matrix(-0.385142,-0.667086,0.667086,-0.385142,-312.586,4190.85)">
                    <path d="M1588.94,2609.16L1588.94,2545.16L1533.52,2577.16L1588.94,2609.16Z" style="fill:rgb(34,34,34);fill-opacity:0.4;"/>
                </g>
                <g transform="matrix(-0.385142,-0.667086,0.667086,-0.385142,-355.279,4166.2)">
                    <path d="M1588.94,2609.16L1588.94,2545.16L1533.52,2577.16L1588.94,2609.16Z" style="fill:rgb(34,34,34);fill-opacity:0.4;"/>
                </g>
                <g transform="matrix(-0.385142,-0.667086,0.667086,-0.385142,-483.36,4092.25)">
                    <path d="M1588.94,2609.16L1588.94,2545.16L1533.52,2577.16L1588.94,2609.16Z" style="fill:rgb(34,34,34);fill-opacity:0.4;"/>
                </g>
                <g transform="matrix(-0.385142,-0.667086,0.667086,-0.385142,-440.666,4116.9)">
                    <path d="M1588.94,2609.16L1588.94,2545.16L1533.52,2577.16L1588.94,2609.16Z" style="fill:rgb(34,34,34);fill-opacity:0.4;"/>
                </g>
                <g transform="matrix(0.385142,-0.667086,0.667086,0.385142,-1621.91,2131.75)">
                    <path d="M1588.94,2609.16L1588.94,2545.16L1533.52,2577.16L1588.94,2609.16Z" style="fill:rgb(34,34,34);fill-opacity:0.4;"/>
                </g>
                <g transform="matrix(0.385142,-0.667086,0.667086,0.385142,-1707.3,2082.45)">
                    <path d="M1588.94,2609.16L1588.94,2545.16L1533.52,2577.16L1588.94,2609.16Z" style="fill:rgb(34,34,34);fill-opacity:0.4;"/>
                </g>
                <g transform="matrix(0.385142,-0.667086,0.667086,0.385142,-1664.61,2107.1)">
                    <path d="M1588.94,2609.16L1588.94,2545.16L1533.52,2577.16L1588.94,2609.16Z" style="fill:rgb(34,34,34);fill-opacity:0.4;"/>
                </g>
                <g transform="matrix(0.770285,0,0,0.770285,-510.422,66.8876)">
                    <path d="M1749.68,2548.36L1716.42,2529.16L1749.68,2509.96L1782.93,2529.16L1749.68,2548.36Z" style="fill:rgb(37,60,128);"/>
                </g>
                <g transform="matrix(0.770285,0,0,0.770285,-504.084,72.518)">
                    <path d="M1721.97,2468.36L1744.14,2481.16L1799.56,2449.16L1777.39,2436.36L1721.97,2468.36Z" style="fill:rgb(37,60,128);"/>
                </g>
                <g transform="matrix(0.770285,0,0,0.770285,-478.467,75.4771)">
                    <path d="M1738.59,2503.56L1771.85,2522.76L1794.02,2509.96L1760.76,2490.76L1738.59,2503.56Z" style="fill:rgb(37,60,128);"/>
                </g>
                <g transform="matrix(0.770285,0,0,0.770285,-513.44,54.7161)">
                    <path d="M1400.5,2628.36L1400.5,2666.76L1437.67,2688.22L1437.03,2649.46L1400.5,2628.36Z" style="fill:rgb(15,188,249);"/>
                </g>
                <g transform="matrix(0.770285,0,0,0.770285,-501.884,51.5285)">
                    <path d="M1433.75,2698.76L1455.92,2711.56L1455.92,2784.78L1433.75,2771.97L1433.75,2698.76Z" style="fill:rgb(15,188,249);"/>
                </g>
            </g>
        </g>
        <g id="N">
        </g>
    </g>
</svg>
