<?xml version="1.0" encoding="UTF-8" standalone="no"?>
<!DOCTYPE svg PUBLIC "-//W3C//DTD SVG 1.1//EN" "http://www.w3.org/Graphics/SVG/1.1/DTD/svg11.dtd">
<svg width="100%" height="100%" viewBox="0 0 512 512" version="1.1" xmlns="http://www.w3.org/2000/svg" xmlns:xlink="http://www.w3.org/1999/xlink" xml:space="preserve" xmlns:serif="http://www.serif.com/" style="fill-rule:evenodd;clip-rule:evenodd;stroke-linejoin:round;stroke-miterlimit:2;">
    <g transform="matrix(1,0,0,1,-846.073,0)">
        <g id="top-icon" serif:id="top icon" transform="matrix(0.779178,0,0,1.03082,182.514,169.339)">
            <rect x="851.614" y="-164.276" width="657.103" height="496.693" style="fill:none;"/>
            <g transform="matrix(1.05869,0,0.0244441,1.05854,-70.3201,-4.92138)">
                <path d="M934.88,80.927L934.88,-9.059C934.88,-15.964 939.753,-22.344 947.662,-25.796L1161.06,-118.926C1168.97,-122.377 1178.71,-122.377 1186.62,-118.926L1315.29,-62.775L1385.02,-93.209C1392.93,-96.66 1402.68,-96.66 1410.58,-93.209L1439.04,-80.791C1446.95,-77.339 1451.82,-70.959 1451.82,-64.055C1451.82,-57.15 1446.95,-50.77 1439.04,-47.318L1420.59,-39.266C1424.51,-39.099 1428.4,-38.246 1431.92,-36.708L1474.6,-18.082C1482.51,-14.631 1487.39,-8.251 1487.39,-1.346C1487.39,5.559 1482.51,11.939 1474.6,15.39L1446.15,27.808C1438.24,31.259 1428.5,31.259 1420.59,27.808L1408.53,22.544C1408.08,22.773 1407.61,22.991 1407.14,23.199L1364.46,41.825C1356.55,45.276 1346.81,45.276 1338.9,41.825L1330.28,38.066C1329.83,38.294 1329.37,38.513 1328.89,38.72L1224.97,84.071L1400.02,160.464C1407.93,163.916 1412.81,170.296 1412.81,177.2C1412.81,184.105 1407.93,190.485 1400.02,193.937L1186.72,287.024C1183.25,288.554 1179.29,289.476 1175.11,289.631L1174.22,289.653C1174.1,289.654 1173.97,289.655 1173.84,289.655L1161.06,287.067L1014.46,223.087L1014.46,235.089C1014.46,241.992 1009.59,248.372 1001.68,251.824C993.769,255.276 984.025,255.277 976.116,251.825L947.662,239.408C939.753,235.956 934.88,229.576 934.88,222.671L934.88,162.76C934.393,162.579 933.911,162.384 933.436,162.176L885.728,141.356C877.818,137.904 872.945,131.524 872.945,124.62L872.945,87.368C872.945,80.464 877.817,74.084 885.726,70.632C893.634,67.18 903.378,67.18 911.287,70.631L934.88,80.927Z" style="fill:white;"/>
                <g transform="matrix(1,0,0,1,-17.3764,4.09273e-12)">
                    <g transform="matrix(-4.81277,-6.301,8.33595,-3.63788,-12314.8,8958.37)">
                        <path d="M332.554,1837.81L332.554,1812.21L354.724,1825.01L332.554,1837.81Z" style="fill:rgb(66,106,224);"/>
                    </g>
                    <g transform="matrix(-4.81277,-6.301,8.33595,-3.63788,-12314.8,8958.37)">
                        <path d="M357.68,1806.24L350.29,1801.97L332.554,1812.21L354.724,1825.01L376.894,1812.21L362.114,1803.68L357.68,1806.24Z" style="fill:rgb(15,188,249);"/>
                    </g>
                    <g transform="matrix(-4.81277,-6.301,8.33595,-3.63788,-12314.8,8958.37)">
                        <path d="M376.894,1812.21L354.724,1825.01L354.724,1842.08L362.114,1837.81L362.114,1846.35L376.894,1837.81L376.894,1812.21Z" style="fill:rgb(37,60,128);"/>
                    </g>
                    <g transform="matrix(1.2834,0,0,0.970103,-848.038,-2447.09)">
                        <path d="M1588.94,2609.16L1644.37,2577.16L1588.94,2545.16L1588.94,2609.16" style="fill:rgb(34,34,34);fill-opacity:0.4;"/>
                    </g>
                    <g transform="matrix(1.2834,0,0,0.970103,-848.038,-2385)">
                        <path d="M1588.94,2609.16L1644.37,2577.16L1588.94,2545.16L1588.94,2609.16" style="fill:rgb(34,34,34);fill-opacity:0.4;"/>
                    </g>
                    <g transform="matrix(1.2834,0,0,0.970103,-705.771,-2322.91)">
                        <path d="M1588.94,2609.16L1644.37,2577.16L1588.94,2545.16L1588.94,2609.16" style="fill:rgb(34,34,34);fill-opacity:0.4;"/>
                    </g>
                    <g transform="matrix(1.2834,0,0,0.970103,-776.905,-2353.96)">
                        <path d="M1588.94,2609.16L1644.37,2577.16L1588.94,2545.16L1588.94,2609.16" style="fill:rgb(34,34,34);fill-opacity:0.4;"/>
                    </g>
                    <g transform="matrix(1.2834,0,0,0.970103,-848.038,-2385)">
                        <path d="M1588.94,2609.16L1644.37,2577.16L1588.94,2545.16L1588.94,2609.16" style="fill:rgb(34,34,34);fill-opacity:0.4;"/>
                    </g>
                    <g transform="matrix(1.2834,0,0,0.970103,-990.305,-2509.17)">
                        <path d="M1588.94,2609.16L1644.37,2577.16L1588.94,2545.16L1588.94,2609.16" style="fill:rgb(34,34,34);fill-opacity:0.4;"/>
                    </g>
                    <g transform="matrix(1.2834,0,0,0.970103,-919.172,-2478.13)">
                        <path d="M1588.94,2609.16L1644.37,2577.16L1588.94,2545.16L1588.94,2609.16" style="fill:rgb(34,34,34);fill-opacity:0.4;"/>
                    </g>
                    <g transform="matrix(1.2834,0,0,0.970103,-848.038,-2447.09)">
                        <path d="M1588.94,2609.16L1588.94,2545.16L1533.52,2577.16L1588.94,2609.16Z" style="fill:rgb(34,34,34);fill-opacity:0.4;"/>
                    </g>
                    <g transform="matrix(1.2834,0,0,0.970103,-990.305,-2509.17)">
                        <path d="M1588.94,2609.16L1588.94,2545.16L1533.52,2577.16L1588.94,2609.16Z" style="fill:rgb(34,34,34);fill-opacity:0.4;"/>
                    </g>
                    <g transform="matrix(1.2834,0,0,0.970103,-919.172,-2478.13)">
                        <path d="M1588.94,2609.16L1588.94,2545.16L1533.52,2577.16L1588.94,2609.16Z" style="fill:rgb(34,34,34);fill-opacity:0.4;"/>
                    </g>
                    <g transform="matrix(-0.641702,-0.840133,1.11146,-0.485051,-689.135,2684.57)">
                        <path d="M1588.94,2609.16L1588.94,2545.16L1533.52,2577.16L1588.94,2609.16Z" style="fill:rgb(34,34,34);fill-opacity:0.4;"/>
                    </g>
                    <g transform="matrix(-0.641702,-0.840133,1.11146,-0.485051,-546.868,2746.66)">
                        <path d="M1588.94,2609.16L1588.94,2545.16L1533.52,2577.16L1588.94,2609.16Z" style="fill:rgb(34,34,34);fill-opacity:0.4;"/>
                    </g>
                    <g transform="matrix(-0.641702,-0.840133,1.11146,-0.485051,-618.002,2715.62)">
                        <path d="M1588.94,2609.16L1588.94,2545.16L1533.52,2577.16L1588.94,2609.16Z" style="fill:rgb(34,34,34);fill-opacity:0.4;"/>
                    </g>
                    <g transform="matrix(-0.641702,-0.840133,1.11146,-0.485051,-831.402,2622.49)">
                        <path d="M1588.94,2609.16L1588.94,2545.16L1533.52,2577.16L1588.94,2609.16Z" style="fill:rgb(34,34,34);fill-opacity:0.4;"/>
                    </g>
                    <g transform="matrix(-0.641702,-0.840133,1.11146,-0.485051,-760.268,2653.53)">
                        <path d="M1588.94,2609.16L1588.94,2545.16L1533.52,2577.16L1588.94,2609.16Z" style="fill:rgb(34,34,34);fill-opacity:0.4;"/>
                    </g>
                    <g transform="matrix(0.641702,-0.840133,1.11146,0.485051,-2728.39,153.417)">
                        <path d="M1588.94,2609.16L1588.94,2545.16L1533.52,2577.16L1588.94,2609.16Z" style="fill:rgb(34,34,34);fill-opacity:0.4;"/>
                    </g>
                    <g transform="matrix(0.641702,-0.840133,1.11146,0.485051,-2870.66,91.3308)">
                        <path d="M1588.94,2609.16L1588.94,2545.16L1533.52,2577.16L1588.94,2609.16Z" style="fill:rgb(34,34,34);fill-opacity:0.4;"/>
                    </g>
                    <g transform="matrix(0.641702,-0.840133,1.11146,0.485051,-2799.53,122.374)">
                        <path d="M1588.94,2609.16L1588.94,2545.16L1533.52,2577.16L1588.94,2609.16Z" style="fill:rgb(34,34,34);fill-opacity:0.4;"/>
                    </g>
                    <g transform="matrix(1.2834,0,0,0.970103,-876.492,-2447.09)">
                        <path d="M1749.68,2548.36L1716.42,2529.16L1749.68,2509.96L1782.93,2529.16L1749.68,2548.36Z" style="fill:rgb(37,60,128);"/>
                    </g>
                    <g transform="matrix(1.2834,0,0,0.970103,-865.931,-2439.99)">
                        <path d="M1721.97,2468.36L1744.14,2481.16L1799.56,2449.16L1777.39,2436.36L1721.97,2468.36Z" style="fill:rgb(37,60,128);"/>
                    </g>
                    <g transform="matrix(1.2834,0,0,0.970103,-823.25,-2436.27)">
                        <path d="M1738.59,2503.56L1771.85,2522.76L1794.02,2509.96L1760.76,2490.76L1738.59,2503.56Z" style="fill:rgb(37,60,128);"/>
                    </g>
                    <g transform="matrix(1.2834,0,0,0.970103,-881.52,-2462.41)">
                        <path d="M1400.5,2628.36L1400.5,2666.76L1437.67,2688.22L1437.03,2649.46L1400.5,2628.36Z" style="fill:rgb(15,188,249);"/>
                    </g>
                    <g transform="matrix(1.2834,0,0,0.970103,-862.265,-2466.43)">
                        <path d="M1433.75,2698.76L1455.92,2711.56L1455.92,2784.78L1433.75,2771.97L1433.75,2698.76Z" style="fill:rgb(15,188,249);"/>
                    </g>
                </g>
            </g>
        </g>
    </g>
</svg>
