<?xml version="1.0" encoding="UTF-8" standalone="no"?>
<!DOCTYPE svg PUBLIC "-//W3C//DTD SVG 1.1//EN" "http://www.w3.org/Graphics/SVG/1.1/DTD/svg11.dtd">
<svg width="100%" height="100%" viewBox="0 0 640 620" version="1.1" xmlns="http://www.w3.org/2000/svg" xmlns:xlink="http://www.w3.org/1999/xlink" xml:space="preserve" xmlns:serif="http://www.serif.com/" style="fill-rule:evenodd;clip-rule:evenodd;stroke-linejoin:round;stroke-miterlimit:2;">
    <g transform="matrix(1,0,0,1,-775.263,-433.135)">
        <g id="back-effect" serif:id="back effect" transform="matrix(0.888889,0,0,1.77143,775.263,-364.008)">
            <rect x="0" y="450" width="720" height="350" style="fill:none;"/>
            <g transform="matrix(3.4177,0,0,3.36407,-2.94158,-1917.75)">
                <g transform="matrix(1.125,0,0,0.564516,-18.2048,190.548)">
                    <path d="M21.576,935.306L21.576,958.544L118.668,946.438L118.668,923.2L21.576,935.306Z" style="fill:rgb(37,60,128);"/>
                </g>
                <g transform="matrix(1.125,0,0,0.564516,12.1365,217.072)">
                    <path d="M140.244,951.494L172.608,947.459L172.608,1028.58L140.244,1032.62L140.244,951.494Z" style="fill:rgb(15,188,249);"/>
                </g>
                <g transform="matrix(1.125,0,0,0.564516,-1.13687e-13,195.968)">
                    <path d="M118.668,923.2L118.668,977.422L172.608,970.697L172.608,916.475L118.668,923.2Z" style="fill:rgb(51,160,255);"/>
                </g>
                <g transform="matrix(1.125,0,0,0.564516,-1.13687e-13,195.968)">
                    <path d="M64.728,957.036L64.728,999.639L97.092,995.604L97.092,953.001L64.728,957.036Z" style="fill:rgb(51,84,179);"/>
                </g>
                <g transform="matrix(1.125,0,0,0.564516,-1.13687e-13,195.968)">
                    <path d="M75.516,1013.79L75.516,1044.77L129.456,1038.05L129.456,1007.06L75.516,1013.79Z" style="fill:rgb(66,106,224);"/>
                </g>
            </g>
        </g>
    </g>
</svg>
