<svg xmlns="http://www.w3.org/2000/svg" width="882.65" height="225.05" viewBox="0 0 882.65 225.05">
  <g id="Cyan" transform="translate(-125.25 -3177.25)">
    <path id="パス_1" data-name="パス 1" d="M130.9-169.4q-26.95,0-41.3,16.45T75.25-106.4q0,30.45,15.925,46.9T134.05-43.05q14.35,0,24.325-3.85a167.078,167.078,0,0,0,19.075-8.75,34.759,34.759,0,0,1,9.275,11.725A35.961,35.961,0,0,1,190.05-28q0,14.35-15.925,24.325T125.65,6.3A143.031,143.031,0,0,1,81.55-.35,98.4,98.4,0,0,1,45.5-20.825q-15.4-13.825-24.325-35T12.25-106.4q0-27.3,8.575-48.125A102.213,102.213,0,0,1,44.275-189.7,98.678,98.678,0,0,1,79.1-211.4a122.54,122.54,0,0,1,42.7-7.35q32.2,0,49.875,10.5T189.35-181.3a27.207,27.207,0,0,1-4.55,15.75,37.454,37.454,0,0,1-10.5,10.5,113.641,113.641,0,0,0-19.425-10.15Q144.55-169.4,130.9-169.4Z" transform="translate(113 3396)" fill="#0fbcf9"/>
    <path id="パス_2" data-name="パス 2" d="M134.05-1.4A97.194,97.194,0,0,1,122.15.7,121.723,121.723,0,0,1,106.4,1.75q-16.1,0-24.15-5.425T74.2-26.6V-73.85q-8.75-12.95-18.9-28.7t-19.95-32.2q-9.8-16.45-18.2-32.375A297.659,297.659,0,0,1,3.5-196.35,47.7,47.7,0,0,1,15.925-207.9q7.875-5.25,19.425-5.25,13.65,0,22.225,5.6t16.275,21L102.9-128.1H105q4.9-10.85,8.575-19.775t7.175-17.85q3.5-8.925,7.35-18.55t8.75-22.225a61.837,61.837,0,0,1,14-4.9,66.356,66.356,0,0,1,14.7-1.75q12.25,0,20.825,6.475t8.575,19.425a36.989,36.989,0,0,1-1.75,10.15q-1.75,5.95-8.05,18.025T166.775-126.35Q154.7-105.7,134.05-72.45Z" transform="translate(333 3396)" fill="#0fbcf9"/>
    <path id="パス_3" data-name="パス 3" d="M67.9-205.8q5.95-3.5,18.025-6.65a96,96,0,0,1,24.325-3.15q17.5,0,30.975,5.075T158.55-194.6q6.3,18.2,13.65,42.35t14.7,49.875q7.35,25.725,14.35,50.75T213.5-7.35q-4.2,4.9-12.6,7.875A59.874,59.874,0,0,1,180.95,3.5a61.182,61.182,0,0,1-14.175-1.4,25.24,25.24,0,0,1-9.45-4.2,20.685,20.685,0,0,1-5.95-7.35,63.746,63.746,0,0,1-4.025-10.5l-6.3-24.15H77.7q-2.8,10.5-5.6,21.7T66.5-.7A88.892,88.892,0,0,1,56.175,2.275,60.487,60.487,0,0,1,43.05,3.5Q25.2,3.5,16.625-2.625T8.05-19.6a35.525,35.525,0,0,1,1.4-9.8q1.4-4.9,3.15-11.55,2.45-9.45,6.825-23.45T29.05-94.675Q34.3-110.95,40.25-128.1t11.2-32.375Q56.7-175.7,61.075-187.6T67.9-205.8Zm42,45.15q-4.9,14.7-11.025,32.725T87.85-91.35h43.4q-4.9-18.9-9.975-36.925T112-160.65Z" transform="translate(554 3396)" fill="#0fbcf9"/>
    <path id="パス_4" data-name="パス 4" d="M214.9-7.35Q210-2.45,200.725.175A82.356,82.356,0,0,1,178.5,2.8,76.973,76.973,0,0,1,154-1.05Q142.45-4.9,135.1-19.6L100.45-90.3Q95.2-101.15,91-110.775T81.9-133l-2.1.35q1.4,18.9,1.575,38.5t.175,38.5V-1.4A97.3,97.3,0,0,1,69.825.7,117.747,117.747,0,0,1,54.25,1.75,79.2,79.2,0,0,1,40.6.7a20.9,20.9,0,0,1-9.8-4.2,20.225,20.225,0,0,1-5.95-8.575q-2.1-5.425-2.1-14.175v-175q4.9-7,15.05-10.5a66.112,66.112,0,0,1,21.7-3.5,75.464,75.464,0,0,1,24.675,4.025Q95.9-207.2,102.9-192.85l35,70.7q5.25,10.85,9.45,20.475t9.1,22.225l1.75-.35q-1.4-18.9-1.75-37.8t-.35-37.8v-56.7a97.3,97.3,0,0,1,11.725-2.1,117.747,117.747,0,0,1,15.575-1.05q15.4,0,23.45,5.425t8.05,22.575Z" transform="translate(793 3396)" fill="#40fbc6"/>
  </g>
</svg>
